<svg width="172" height="30" viewBox="0 0 172 30" fill="none" xmlns="http://www.w3.org/2000/svg">
<path d="M47.708 23.9999H51.5V17.2799L58.028 7.19988H53.324L49.604 13.4399L45.884 7.19988H41.18L47.708 17.2799V23.9999ZM67.8909 24.4079C72.7389 24.4079 76.6749 20.4959 76.6749 15.6239C76.6749 10.7759 72.7389 6.86388 67.8909 6.86388C63.0429 6.86388 59.1069 10.7759 59.1069 15.6239C59.1069 20.4959 63.0429 24.4079 67.8909 24.4079ZM67.8909 20.7359C65.1309 20.7359 62.9709 18.4799 62.9709 15.6239C62.9709 12.7679 65.1309 10.5359 67.8909 10.5359C70.6509 10.5359 72.8109 12.7679 72.8109 15.6239C72.8109 18.4799 70.6509 20.7359 67.8909 20.7359ZM87.3397 24.4079C91.6237 24.4079 94.6597 22.2479 94.6597 16.7999V7.19988H90.8677V16.5839C90.8677 19.8479 89.1157 20.8799 87.3397 20.8799C85.5637 20.8799 83.8117 19.8479 83.8117 16.5839V7.19988H80.0197V16.7999C80.0197 22.2479 83.0797 24.4079 87.3397 24.4079ZM99.4522 23.9999H103.196V18.5759H105.44L108.692 23.9999H113.18L109.28 17.7359C111.056 16.6559 112.292 14.8079 112.292 12.7919C112.292 9.59988 109.676 7.19988 106.028 7.19988H99.4522V23.9999ZM103.196 15.4319V10.6319H105.98C107.492 10.6319 108.5 11.7359 108.5 13.0319C108.5 14.3279 107.492 15.4319 105.98 15.4319H103.196ZM121.787 24.2879C125.627 24.2879 128.171 21.9839 128.171 18.8399C128.171 13.1519 119.819 14.3519 119.819 11.9999C119.819 11.1119 121.019 10.4639 122.795 10.4639C124.211 10.4639 125.855 11.0159 127.043 11.7479V7.89588C125.771 7.28388 123.923 6.91188 122.387 6.91188C118.571 6.91188 116.051 9.16788 116.051 12.2879C116.051 17.9039 124.235 16.7759 124.235 19.1519C124.235 20.2559 122.459 20.6399 121.187 20.6399C119.111 20.6399 117.551 19.9439 116.219 19.0799V23.0759C117.443 23.6639 119.099 24.2879 121.787 24.2879ZM131.937 23.9999H135.753V7.19988H131.937V23.9999ZM144.111 23.9999H147.903V10.7519H152.415V7.19988H139.599V10.7519H144.111V23.9999ZM156.265 23.9999H167.689V20.5439H160.009V17.2079H166.225V13.7039H160.009V10.6079H167.353V7.19988H156.265V23.9999Z" fill="black"/>
<path fill-rule="evenodd" clip-rule="evenodd" d="M31.1753 30H4.91753C2.19588 30 0 27.8041 0 25.0825V4.91752C0 2.19587 2.19588 0 4.91753 0H31.1753C33.8969 0 36.0928 2.19587 36.0928 4.91752V25.0825C36.0619 27.8041 33.866 30 31.1753 30ZM11.6598 14.8763L15.6494 7.14437H18.6494L13.0206 17.5052L10.2371 24.0619L11.6597 14.8765L10.268 17.598L4.63916 7.14438H7.63917L11.6598 14.8763ZM29.9691 16.6391C30.2784 17.2268 30.4331 17.969 30.4331 18.8041C30.4331 20.5051 30.031 22.1752 28.5774 22.701C27.2166 23.1958 26.0722 21.7732 26.6908 20.7525C27.0001 20.1958 26.6908 18.402 26.4434 18.0927L29.9691 16.6391ZM22.8246 16.1133C23.8453 16.4845 24.6185 16.8556 25.2061 17.1649C25.7628 17.4742 29.1648 15.4948 28.5463 15.0618C27.8968 14.5979 26.8453 14.103 25.4226 13.5463C23.7215 12.8968 22.6081 12.3711 22.1133 11.9999C21.5875 11.6288 18.0618 13.0205 18.7731 13.7937C19.4844 14.5669 20.8453 15.3401 22.8246 16.1133ZM17.6907 10.7938C17.6907 9.30922 18.2783 8.1649 19.4845 7.32984C20.6907 6.52572 22.2989 6.09273 24.3711 6.09273C26.4123 6.09273 28.3299 6.49479 30.1546 7.32984L28.9793 10.1134C27.1237 9.34015 25.5463 8.96902 24.2783 8.96902C22.3299 8.96902 21.3711 9.52572 21.3711 10.6391C21.3402 11.1649 17.6907 11.9999 17.6907 10.7938ZM18.1857 23.0413C19.6083 23.7526 21.4331 24.0928 23.7527 24.0928C26.0413 24.0928 26.1341 21.2784 23.8764 21.2784C22.1135 21.2784 20.2269 20.7835 18.1857 19.8557V23.0413Z" fill="url(#paint0_linear)"/>
<defs>
<linearGradient id="paint0_linear" x1="0" y1="15" x2="36" y2="15" gradientUnits="userSpaceOnUse">
<stop stop-color="#F39A4A"/>
<stop offset="1" stop-color="#F79B7F"/>
</linearGradient>
</defs>
</svg>
